<svg width="14" height="14" viewBox="0 0 14 14" fill="none" xmlns="http://www.w3.org/2000/svg">
<path d="M6.07005 0.017343C2.72285 0.017343 0 2.74019 0 6.08739C0 9.43459 2.72285 12.1574 6.07005 12.1574C7.09328 12.1574 8.09918 11.9146 8.94898 11.4464C9.01705 11.5283 9.09252 11.6038 9.17444 11.6718L10.9087 13.4061C11.0689 13.5863 11.2642 13.7319 11.4826 13.8339C11.701 13.9359 11.938 13.9921 12.179 13.9992C12.4199 14.0063 12.6598 13.9641 12.8839 13.8751C13.1079 13.7862 13.3114 13.6523 13.4819 13.4819C13.6523 13.3114 13.7862 13.1079 13.8751 12.8839C13.9641 12.6598 14.0063 12.4199 13.9992 12.179C13.9921 11.938 13.9359 11.701 13.8339 11.4826C13.7319 11.2642 13.5863 11.0689 13.4061 10.9087L11.6718 9.17444C11.5873 9.08993 11.4944 9.01437 11.3943 8.94898C11.8626 8.09918 12.1574 7.11063 12.1574 6.07005C12.1574 2.72285 9.43459 0 6.08739 0L6.07005 0.017343ZM6.07005 1.75164C8.48072 1.75164 10.4058 3.67671 10.4058 6.08739C10.4058 7.23203 9.98956 8.28995 9.26116 9.07038C9.24381 9.08773 9.22647 9.10507 9.20913 9.12241C9.12721 9.19048 9.05174 9.26595 8.98367 9.34787C8.22058 10.0416 7.18 10.4405 6.0527 10.4405C3.64203 10.4405 1.71696 8.51541 1.71696 6.10473C1.71696 3.69406 3.64203 1.76898 6.0527 1.76898L6.07005 1.75164Z" fill="white"/>
</svg>
