<svg width="15" height="15" viewBox="0 0 15 15" fill="none" xmlns="http://www.w3.org/2000/svg">
<g clip-path="url(#clip0_114_162)">
<path d="M0.5 0.5H2.7L5.2 11H12.4L14.5 3.5H3.7" stroke="#EE4D2D" stroke-miterlimit="10" stroke-linecap="round"/>
<path d="M6 14.5C6.55228 14.5 7 14.0523 7 13.5C7 12.9477 6.55228 12.5 6 12.5C5.44772 12.5 5 12.9477 5 13.5C5 14.0523 5.44772 14.5 6 14.5Z" fill="#EE4D2D"/>
<path d="M11.5 14.5C12.0523 14.5 12.5 14.0523 12.5 13.5C12.5 12.9477 12.0523 12.5 11.5 12.5C10.9477 12.5 10.5 12.9477 10.5 13.5C10.5 14.0523 10.9477 14.5 11.5 14.5Z" fill="#EE4D2D"/>
<path d="M7.5 7H10.5" stroke="#EE4D2D" stroke-miterlimit="10" stroke-linecap="round"/>
<path d="M9 8.5V5.5" stroke="#EE4D2D" stroke-miterlimit="10" stroke-linecap="round"/>
</g>
<defs>
<clipPath id="clip0_114_162">
<rect width="15" height="15" fill="white"/>
</clipPath>
</defs>
</svg>
