<svg width="16" height="19" viewBox="0 0 16 19" fill="none" xmlns="http://www.w3.org/2000/svg">
<path d="M4.68678 0.063217C3.83557 0.108593 3.25429 0.262076 2.74612 0.487691C2.2202 0.719272 1.77443 1.03003 1.33091 1.53297C0.887382 2.0359 0.614259 2.53992 0.410737 3.13505C0.213775 3.71048 0.0803338 4.3678 0.0427334 5.33009C0.00513303 6.29239 -0.00318706 6.60171 0.000972982 9.05635C0.00513302 11.511 0.0147331 11.8187 0.0560135 12.783C0.096654 13.7446 0.232015 14.4011 0.431697 14.9755C0.636979 15.5697 0.911702 16.0732 1.35699 16.5745C1.80227 17.0758 2.24804 17.3837 2.77604 17.614C3.28485 17.8362 3.86677 17.9877 4.7183 18.0298C5.56983 18.0719 5.84391 18.0817 8.01577 18.077C10.1876 18.0723 10.4611 18.0614 11.3144 18.0157C12.1677 17.9699 12.7457 17.8159 13.2542 17.5914C13.7802 17.3589 14.2261 17.049 14.6694 16.5458C15.1128 16.0425 15.3858 15.5381 15.5891 14.9426C15.7863 14.3677 15.9202 13.7102 15.9571 12.7488C15.9944 11.784 16.0032 11.4759 15.9991 9.02164C15.9949 6.56736 15.9851 6.25967 15.9447 5.29575C15.9042 4.33182 15.7687 3.67721 15.5691 3.10251C15.3635 2.50828 15.0891 2.00517 14.644 1.5035C14.1989 1.00183 13.7522 0.693601 13.2253 0.46437C12.7161 0.241829 12.1345 0.0901534 11.283 0.0485737C10.4315 0.00699407 10.1574 -0.00367202 7.98473 0.00102829C5.81207 0.0057286 5.54007 0.0162139 4.68678 0.063217ZM4.78022 16.4037C4.00021 16.3653 3.57669 16.2189 3.29445 16.0963C2.92068 15.9336 2.65444 15.7369 2.37316 15.4222C2.09187 15.1075 1.91907 14.8056 1.77315 14.3842C1.66355 14.0653 1.53155 13.5873 1.49507 12.706C1.45539 11.7534 1.44707 11.4674 1.44243 9.05418C1.43779 6.64094 1.44595 6.3553 1.48291 5.40241C1.51619 4.52182 1.64659 4.04275 1.75491 3.72403C1.89891 3.30119 2.07235 3.00091 2.35156 2.68328C2.63076 2.36565 2.89716 2.17004 3.27045 2.00517C3.55237 1.88079 3.97541 1.73291 4.7551 1.69097C5.59879 1.64577 5.85159 1.63674 7.98713 1.63149C10.1227 1.62625 10.3761 1.63529 11.2201 1.67723C11.9995 1.71556 12.4237 1.86145 12.7054 1.98456C13.0793 2.14726 13.3454 2.34269 13.6266 2.65869C13.9077 2.9747 14.081 3.27461 14.2269 3.69728C14.3371 4.01491 14.468 4.49272 14.5048 5.3742C14.545 6.32746 14.5541 6.61328 14.5579 9.02598C14.5618 11.4387 14.5542 11.7252 14.5173 12.6778C14.4832 13.5591 14.3539 14.0378 14.2453 14.357C14.1013 14.7792 13.9277 15.0802 13.6483 15.3976C13.3689 15.7151 13.1029 15.9107 12.7294 16.0755C12.4478 16.1997 12.0243 16.348 11.2452 16.3899C10.4016 16.4348 10.1488 16.4442 8.01241 16.4494C5.87607 16.4546 5.62407 16.4449 4.78038 16.4037M11.302 4.20799C11.3024 4.42253 11.359 4.63215 11.4648 4.81034C11.5705 4.98852 11.7207 5.12726 11.8962 5.20902C12.0718 5.29078 12.2649 5.31187 12.451 5.26964C12.6372 5.22741 12.8081 5.12374 12.9421 4.97176C13.0762 4.81977 13.1673 4.62629 13.204 4.41579C13.2407 4.20529 13.2213 3.98722 13.1483 3.78916C13.0753 3.59111 12.9519 3.42196 12.7938 3.30311C12.6358 3.18427 12.45 3.12106 12.2601 3.12149C12.0056 3.12207 11.7617 3.23685 11.582 3.44059C11.4023 3.64434 11.3016 3.92037 11.302 4.20799ZM3.89237 9.04804C3.89685 11.6115 5.73943 13.6849 8.00777 13.68C10.2761 13.6751 12.1125 11.5934 12.1081 9.02996C12.1038 6.46648 10.2608 4.39256 7.99209 4.39762C5.72343 4.40269 3.88805 6.48492 3.89237 9.04804ZM5.33335 9.04478C5.3323 8.44886 5.48769 7.86596 5.77984 7.36981C6.072 6.87366 6.48781 6.48653 6.9747 6.25739C7.46158 6.02825 7.99767 5.96738 8.51517 6.08248C9.03267 6.19759 9.50834 6.48349 9.88203 6.90404C10.2557 7.32459 10.5106 7.8609 10.6146 8.44515C10.7185 9.0294 10.6667 9.63535 10.4659 10.1864C10.265 10.7374 9.92401 11.2087 9.48604 11.5408C9.04808 11.8728 8.53281 12.0507 8.00537 12.0519C7.65516 12.0527 7.30823 11.9756 6.9844 11.8249C6.66057 11.6742 6.36619 11.453 6.11806 11.1737C5.86993 10.8945 5.67292 10.5627 5.53828 10.1974C5.40363 9.83216 5.334 9.44048 5.33335 9.04478Z" fill="white"/>
</svg>
