<svg width="18" height="17" viewBox="0 0 18 17" fill="none" xmlns="http://www.w3.org/2000/svg">
<path d="M5.27263 0.0594472C4.31502 0.102117 3.66107 0.246448 3.08939 0.458609C2.49772 0.676379 1.99623 0.96861 1.49727 1.44155C0.998305 1.91449 0.691042 2.38846 0.462079 2.9481C0.240497 3.48921 0.0903755 4.10733 0.0480751 5.01224C0.00577466 5.91716 -0.00358544 6.20803 0.0010946 8.5163C0.00577465 10.8246 0.0165748 11.1139 0.0630152 12.0207C0.108736 12.9249 0.261017 13.5424 0.485659 14.0825C0.716602 14.6412 1.02566 15.1147 1.52661 15.5861C2.02755 16.0575 2.52904 16.347 3.12305 16.5636C3.69545 16.7725 4.35012 16.915 5.30809 16.9546C6.26606 16.9942 6.5744 17.0034 9.01775 16.999C11.4611 16.9946 11.7687 16.9844 12.7287 16.9414C13.6886 16.8983 14.339 16.7535 14.911 16.5424C15.5027 16.3237 16.0043 16.0324 16.5031 15.5591C17.0019 15.0858 17.309 14.6115 17.5378 14.0515C17.7595 13.5109 17.9102 12.8926 17.9518 11.9886C17.9937 11.0813 18.0036 10.7916 17.9989 8.48366C17.9943 6.17573 17.9833 5.88639 17.9377 4.97994C17.8922 4.0735 17.7397 3.45793 17.5153 2.9175C17.284 2.35871 16.9753 1.88559 16.4745 1.41384C15.9737 0.94209 15.4712 0.652239 14.8784 0.436679C14.3057 0.227408 13.6514 0.0847773 12.6934 0.0456771C11.7354 0.00657699 11.4271 -0.00345304 8.98283 0.000966973C6.53858 0.00538699 6.23258 0.015247 5.27263 0.0594472ZM5.37775 15.4255C4.50024 15.3894 4.02378 15.2517 3.70625 15.1365C3.28577 14.9835 2.98624 14.7985 2.6698 14.5025C2.35336 14.2066 2.15896 13.9227 1.99479 13.5264C1.87149 13.2265 1.72299 12.777 1.68195 11.9483C1.63731 11.0525 1.62795 10.7836 1.62273 8.51426C1.61751 6.24492 1.62669 5.97632 1.66827 5.08024C1.70571 4.25217 1.85241 3.80167 1.97427 3.50196C2.13628 3.10433 2.3314 2.82196 2.6455 2.52327C2.9596 2.22457 3.25931 2.04063 3.67925 1.88559C3.99641 1.76863 4.47234 1.62957 5.34949 1.59013C6.29864 1.54763 6.58304 1.53913 8.98553 1.5342C11.388 1.52927 11.6731 1.53777 12.6226 1.57721C13.4994 1.61325 13.9766 1.75044 14.2936 1.86621C14.7143 2.01921 15.0136 2.20298 15.3299 2.50015C15.6461 2.79731 15.8411 3.07934 16.0052 3.4768C16.1293 3.77549 16.2765 4.2248 16.3179 5.05372C16.3631 5.95014 16.3733 6.21891 16.3777 8.48774C16.382 10.7566 16.3735 11.026 16.3319 11.9217C16.2936 12.7505 16.1482 13.2007 16.0259 13.5009C15.8639 13.8978 15.6686 14.1809 15.3543 14.4794C15.0401 14.7779 14.7407 14.9619 14.3206 15.1169C14.0038 15.2337 13.5273 15.3731 12.6509 15.4125C11.7018 15.4547 11.4174 15.4635 9.01397 15.4685C6.61058 15.4734 6.32708 15.4642 5.37793 15.4255M12.7148 3.95705C12.7152 4.1588 12.7789 4.35592 12.8978 4.52348C13.0168 4.69104 13.1858 4.82151 13.3833 4.89839C13.5808 4.97527 13.798 4.99511 14.0074 4.95539C14.2169 4.91568 14.4091 4.8182 14.5599 4.67528C14.7107 4.53236 14.8132 4.35041 14.8545 4.15247C14.8957 3.95452 14.8739 3.74945 14.7918 3.56321C14.7097 3.37696 14.5709 3.2179 14.3931 3.10614C14.2152 2.99438 14.0063 2.93494 13.7927 2.93535C13.5063 2.93589 13.2319 3.04382 13.0297 3.23542C12.8276 3.42702 12.7143 3.68659 12.7148 3.95705ZM4.37892 8.50848C4.38396 10.9191 6.45686 12.8688 9.00875 12.8642C11.5606 12.8596 13.6265 10.9021 13.6217 8.49148C13.6168 6.08087 11.5434 4.13062 8.99111 4.13538C6.43886 4.14014 4.37406 6.09821 4.37892 8.50848ZM6.00002 8.50542C5.99884 7.94502 6.17365 7.39689 6.50232 6.93032C6.831 6.46376 7.29879 6.09972 7.84653 5.88424C8.39428 5.66877 8.99737 5.61153 9.57956 5.71977C10.1617 5.82801 10.6969 6.09686 11.1173 6.49233C11.5377 6.88781 11.8245 7.39213 11.9414 7.94154C12.0583 8.49095 12.0001 9.06076 11.7741 9.57892C11.5481 10.0971 11.1645 10.5403 10.6718 10.8526C10.1791 11.1648 9.59941 11.3321 9.00605 11.3332C8.61205 11.334 8.22176 11.2615 7.85745 11.1198C7.49314 10.9781 7.16196 10.77 6.88281 10.5074C6.60367 10.2448 6.38203 9.93284 6.23056 9.58934C6.07909 9.24584 6.00075 8.87752 6.00002 8.50542Z" fill="white"/>
</svg>
