<svg width="17" height="18" viewBox="0 0 17 18" fill="none" xmlns="http://www.w3.org/2000/svg">
<path d="M4.9797 0.0629441C4.0753 0.108124 3.45768 0.260945 2.91775 0.485586C2.35896 0.716166 1.88533 1.02559 1.41409 1.52635C0.942843 2.02711 0.65265 2.52895 0.436408 3.12151C0.227136 3.69446 0.0853546 4.34894 0.0454042 5.30708C0.00545384 6.26523 -0.00338625 6.57321 0.00103379 9.01726C0.00545384 11.4613 0.0156539 11.7677 0.0595144 12.7278C0.102695 13.6852 0.246516 14.339 0.458678 14.9108C0.676791 15.5025 0.968684 16.0038 1.4418 16.5029C1.91491 17.0021 2.38854 17.3086 2.94954 17.5379C3.49015 17.7592 4.10845 17.91 5.0132 17.9519C5.91794 17.9939 6.20916 18.0036 8.51676 17.9989C10.8244 17.9942 11.1149 17.9834 12.0215 17.9379C12.9281 17.8924 13.5424 17.739 14.0826 17.5154C14.6414 17.284 15.1152 16.9754 15.5863 16.4743C16.0574 15.9732 16.3474 15.471 16.5635 14.8781C16.7729 14.3057 16.9152 13.651 16.9545 12.6938C16.9941 11.7331 17.0034 11.4264 16.999 8.9827C16.9946 6.53901 16.9842 6.23265 16.9412 5.27288C16.8982 4.31312 16.7542 3.66134 16.5422 3.08911C16.3237 2.49745 16.0322 1.99651 15.5593 1.49701C15.0863 0.997507 14.6117 0.690606 14.0518 0.462365C13.5109 0.240785 12.8929 0.0897642 11.9882 0.048364C11.0834 0.00696388 10.7922 -0.00365616 8.48378 0.00102385C6.17533 0.00570387 5.88632 0.0161439 4.9797 0.0629441ZM5.07899 16.3328C4.25023 16.2947 3.80023 16.1489 3.50035 16.0268C3.10323 15.8648 2.82034 15.669 2.52148 15.3556C2.22262 15.0422 2.03901 14.7416 1.88397 14.3221C1.76752 14.0045 1.62727 13.5286 1.58851 12.6511C1.54635 11.7027 1.53751 11.4179 1.53258 9.0151C1.52765 6.61227 1.53632 6.32787 1.57559 5.37908C1.61095 4.5023 1.7495 4.0253 1.86459 3.70796C2.01759 3.28694 2.20188 2.98795 2.49853 2.67169C2.79518 2.35543 3.07823 2.16067 3.47485 1.99651C3.77439 1.87267 4.22388 1.72543 5.0523 1.68367C5.94871 1.63867 6.21732 1.62967 8.48633 1.62445C10.7553 1.61923 11.0246 1.62823 11.9214 1.66999C12.7495 1.70815 13.2001 1.85341 13.4995 1.97599C13.8968 2.13799 14.1795 2.33257 14.4782 2.64721C14.7769 2.96185 14.961 3.26048 15.1161 3.68132C15.2332 3.99758 15.3722 4.47332 15.4113 5.351C15.454 6.30015 15.4637 6.58473 15.4678 8.98702C15.4719 11.3893 15.4639 11.6746 15.4246 12.623C15.3884 13.5005 15.251 13.9772 15.1356 14.2951C14.9826 14.7154 14.7982 15.0151 14.5013 15.3311C14.2045 15.6472 13.9218 15.842 13.525 16.0061C13.2258 16.1298 12.7758 16.2774 11.9481 16.3192C11.0517 16.3638 10.7831 16.3732 8.51319 16.3784C6.24333 16.3836 5.97557 16.3739 5.07916 16.3328M12.0084 4.18982C12.0088 4.40344 12.0689 4.61215 12.1813 4.78957C12.2937 4.96698 12.4532 5.10513 12.6397 5.18653C12.8263 5.26793 13.0314 5.28894 13.2292 5.24689C13.427 5.20484 13.6086 5.10162 13.751 4.95029C13.8934 4.79896 13.9902 4.60632 14.0292 4.39673C14.0682 4.18714 14.0476 3.97001 13.9701 3.77281C13.8925 3.5756 13.7614 3.40719 13.5935 3.28885C13.4255 3.17052 13.2281 3.10759 13.0264 3.10801C12.7559 3.10859 12.4968 3.22287 12.3059 3.42574C12.115 3.62861 12.008 3.90345 12.0084 4.18982ZM4.13565 9.00898C4.14041 11.5614 6.09815 13.6258 8.50826 13.621C10.9184 13.6161 12.8695 11.5434 12.8649 8.99098C12.8603 6.43857 10.9021 4.3736 8.4916 4.37864C6.08115 4.38368 4.13106 6.45693 4.13565 9.00898ZM5.66668 9.00574C5.66557 8.41238 5.83067 7.832 6.14108 7.33799C6.4515 6.84398 6.8933 6.45853 7.41061 6.23037C7.92793 6.00222 8.49752 5.94162 9.04736 6.05622C9.59721 6.17083 10.1026 6.4555 10.4997 6.87423C10.8967 7.29297 11.1676 7.82696 11.278 8.40869C11.3884 8.99042 11.3334 9.59375 11.12 10.1424C10.9065 10.691 10.5443 11.1603 10.0789 11.491C9.61359 11.8216 9.06611 11.9987 8.50571 11.9999C8.13361 12.0007 7.765 11.9239 7.42093 11.7739C7.07686 11.6238 6.76407 11.4035 6.50044 11.1255C6.2368 10.8474 6.02747 10.5171 5.88442 10.1534C5.74136 9.78971 5.66737 9.39972 5.66668 9.00574Z" fill="white"/>
</svg>
